<svg xmlns="http://www.w3.org/2000/svg" xmlns:xlink="http://www.w3.org/1999/xlink" viewBox="0 0 25 20"><defs><linearGradient id="c" y2="31.57" xlink:href="#a" gradientUnits="userSpaceOnUse" y1="23.362" x2="5.985" x1="6.305"/><linearGradient id="b" y2="46.986" xlink:href="#a" gradientUnits="userSpaceOnUse" y1="19.111" x2="39.525" x1="14.969"/><linearGradient id="a"><stop stop-color="#fff" offset="0"/><stop stop-color="#fff" stop-opacity="0" offset="1"/></linearGradient></defs><path xlink:href="#path4323" stroke="url(#b)" stroke-width=".984" fill="none" stroke-miterlimit="10" opacity=".185" d="M36.961 11.824a12.182 12.182 0 01-2.688 3.111c-2.631 2.18-7.046 4.174-14.277 4.356-4.227.105-6.95-1.953-8.623-3.77l-.11 4.48c.135.42.397 1.396-.08 2.723-.515 1.428-2.16 2.869-4.968 3.977.25.523.482 1.073 1.24 1.815 1.028 1.005 2.477 2.082 4.176 3.056 3.399 1.95 7.806 3.486 11.91 3.555 4.105.07 7.836-1.225 10.416-4.99 2.38-3.474 3.69-9.37 3.004-18.312z" transform="translate(0 -1032.4)"/><path xlink:href="#path5198" stroke="url(#c)" stroke-width=".984" fill="none" transform="rotate(-36.833 -1546.913 -489.6)" stroke-miterlimit="10" opacity=".281" d="M6.094 22.17c-.798 0-1.565.444-2.2 1.342-.634.897-1.068 2.222-1.068 3.707s.434 2.81 1.069 3.707c.634.897 1.4 1.342 2.199 1.342.798 0 1.577-.447 2.219-1.346.641-.899 1.08-2.222 1.08-3.703s-.439-2.805-1.08-3.703c-.642-.9-1.421-1.346-2.22-1.346z"/><g fill-rule="evenodd" transform="translate(0 -1032.4)"><path d="M6.003 1034.4s2.194 5.044 6.623 4.929c9.283-.245 10.936-5.733 11.94-6.988 4.16 31.246-22.764 17.792-22.015 12.88 4.774-1.467 3.074-2.015 3.074-2.015z" fill="#fff"/><path d="M16.888 1045.9s.596.52.946.993c-1.323 1.072-3.585 1.935-8.024 1.004 2.241.83 4.129 1.209 5.587 1.114-.885.309-2 .533-3.437.608 3.204.311 5.592-.313 6.436-1.624.223.25.436.68.646 1.231.143-.943.485-1.397-.06-2.135-.545-.739-2.094-1.191-2.094-1.191z"/><ellipse transform="matrix(.79727 -.60362 .56649 .82407 0 0)" cy="835.87" stroke-width=".335" rx="2.902" ry="4.149" stroke-miterlimit="10" stroke="#fff" cx="-589.57"/><ellipse rx="1.164" ry="1.466" cy="1043.2" cx="2.123" fill="#fff"/><ellipse cy="1042.1" stroke-width=".38" fill="#fff" rx="2.624" ry="2.855" stroke-miterlimit="10" stroke="#000" cx="8.761"/><path d="M9.462 1041a1.746 1.832 0 00-1.746 1.832 1.746 1.832 0 001.746 1.83 1.746 1.832 0 001.746-1.83A1.746 1.832 0 009.462 1041zm-.657.501a.69.724 0 01.689.724.69.724 0 01-.689.725.69.724 0 01-.69-.724.69.724 0 01.69-.725z"/><ellipse cy="1042.7" stroke-width=".335" fill="#fff" rx="3.144" ry="3.3" stroke-miterlimit="10" stroke="#000" cx="14.531"/><path d="M15.302 1040.8a2.235 2.345 0 00-2.234 2.345 2.235 2.345 0 002.234 2.346 2.235 2.345 0 002.236-2.346 2.235 2.345 0 00-2.236-2.345zm-.619.473a1.048 1.1 0 011.048 1.101 1.048 1.1 0 01-1.048 1.1 1.048 1.1 0 01-1.047-1.1 1.048 1.1 0 011.048-1.1z"/></g></svg>