<svg xmlns="http://www.w3.org/2000/svg" viewBox="0 0 20 20"><path d="M16.703 2c-.675-.01-1.486.405-2.163 1.081-1.107.997-2.195 2.114-3.243 3.243L2.65 4.594 2 5.893l6.486 3.243-3.675 4.325c-.843-.278-2.162-.593-2.162.432 0 .203.05.411.216.649l2.594 2.594c.238.166.446.216.649.216 1.025 0 .71-1.319.432-2.162l4.325-3.675L14.108 18l1.297-.649-1.73-8.648c1.13-1.048 2.247-2.136 3.244-3.243.676-.677 1.091-1.488 1.08-2.163-.005-.363-.12-.709-.352-.944-.235-.232-.581-.347-.944-.353z" style="marker:none" color="#000" overflow="visible"/></svg>
